<svg xmlns="http://www.w3.org/2000/svg" id="Компонент_67_1" width="78.608" height="78.608" viewBox="0 0 78.608 78.608">
    <defs>
        <style>
            .cls-1{fill:#840000}
        </style>
    </defs>
    <path id="Контур_2062" d="M-625.854 1120.549a39.3 39.3 0 0 0-39.3 39.3 39.3 39.3 0 0 0 39.3 39.3 39.3 39.3 0 0 0 39.3-39.3 39.3 39.3 0 0 0-39.3-39.3zm.275 5.037a.1.1 0 0 1 .04-.008.085.085 0 0 0 .032-.014c.054.011.109.049.219.079.983.309 4.363 1.707 6.018 7.8h-12.52c1.818-6.733 5.59-7.731 6.211-7.857zm11.989 53.053s-1.406-4.021-5.181-4.8l-.006.021a7.538 7.538 0 0 1-2.793 3.815 7.986 7.986 0 0 1 2.989 4.111c1.251 6.95-1.645 7.036-1.645 7.036a2.628 2.628 0 0 0-.006-1.683c-.6-1.986-1.823-.475-1.823-.475-.478 7.645-2.361 7.792-3.235 7.343a1.992 1.992 0 0 1-.542-.393 5.706 5.706 0 0 0 .54-.992c.984-1.994.638-3.247 0-4v-.061a1.465 1.465 0 0 0-1.341-.562 2.542 2.542 0 0 0-1.7 1.605c-1.17.626-1.725-1.264-1.985-3.383-.094-.769-1.667 2.818-1.7 2.1-.063-1.393 1.477-6.875 1.477-6.875-.824-.6-1.853 1.728-1.853 1.728-.4-4.394 1.643-5.552 2.874-5.855a7.656 7.656 0 0 1-2.387-3.5l-.007-.022c-3.991.634-5.489 4.872-5.489 4.872-7.036-15.668 2.4-22.6 2.4-22.6a13.919 13.919 0 1 1-.04-1.576s-.46-11.268 2.59-19.762h13.933c3.05 8.494 2.589 19.762 2.589 19.762-.01.528-.024 1.056-.043 1.556.454.338 9.239 7.321 2.383 22.589z" class="cls-1" transform="translate(665.158 -1120.549)"/>
    <path id="Контур_2063" d="M-622.792 1149.159a4.907 4.907 0 0 0 4.9-4.9 4.906 4.906 0 0 0-4.9-4.9 4.906 4.906 0 0 0-4.9 4.9 4.907 4.907 0 0 0 4.9 4.9zm-3.089-6.984l.1-.146c.072-.1.148-.188.228-.276s.164-.173.253-.253a3.77 3.77 0 0 1 .422-.331 3.765 3.765 0 0 1 .467-.268c.109-.052.22-.1.334-.142s.231-.078.35-.108a3.736 3.736 0 0 1 .931-.118 3.741 3.741 0 0 1 .931.118c.119.031.235.067.349.108a3.607 3.607 0 0 1 .334.142 3.706 3.706 0 0 1 .468.268 3.777 3.777 0 0 1 .674.584c.08.089.157.18.228.276.036.047.071.1.1.146a3.709 3.709 0 0 1 .636 2.082 3.712 3.712 0 0 1-.45 1.776c-.057.106-.12.207-.186.306l-.1.146a3.526 3.526 0 0 1-.228.276 3.728 3.728 0 0 1-.674.584 3.727 3.727 0 0 1-.468.269 3.71 3.71 0 0 1-1.614.367 3.714 3.714 0 0 1-1.615-.367 3.787 3.787 0 0 1-.467-.269 3.634 3.634 0 0 1-.422-.331c-.089-.08-.173-.164-.253-.253s-.156-.18-.228-.276c-.036-.047-.07-.1-.1-.146-.067-.1-.129-.2-.187-.306a3.712 3.712 0 0 1-.449-1.776 3.709 3.709 0 0 1 .636-2.082z" class="cls-1" transform="translate(662.677 -1121.794)"/>
    <path id="Контур_2064" d="M-622.592 1152.173a2.434 2.434 0 0 0-2.431 2.432 2.434 2.434 0 0 0 2.431 2.431 2.434 2.434 0 0 0 2.432-2.431 2.434 2.434 0 0 0-2.432-2.432zm1.625 3.312a1.737 1.737 0 0 1-.092.152l-.051.072c-.036.048-.074.094-.113.137a1.9 1.9 0 0 1-.334.289 1.933 1.933 0 0 1-.233.134 1.84 1.84 0 0 1-.8.182 1.839 1.839 0 0 1-.8-.182 1.932 1.932 0 0 1-.232-.134 1.779 1.779 0 0 1-.209-.164c-.044-.04-.086-.081-.125-.125a1.713 1.713 0 0 1-.113-.137c-.018-.023-.036-.047-.051-.072a1.694 1.694 0 0 1-.092-.152 1.834 1.834 0 0 1-.223-.881 1.836 1.836 0 0 1 .316-1.033l.051-.072a1.753 1.753 0 0 1 .113-.137c.039-.044.081-.085.125-.125a1.8 1.8 0 0 1 .209-.164 1.915 1.915 0 0 1 .232-.134 1.618 1.618 0 0 1 .165-.07q.085-.031.174-.054a1.881 1.881 0 0 1 .461-.058 1.883 1.883 0 0 1 .462.058q.088.024.174.054t.165.07a1.916 1.916 0 0 1 .233.134 1.893 1.893 0 0 1 .334.29c.039.044.078.09.113.137l.051.072a1.843 1.843 0 0 1 .316 1.033 1.846 1.846 0 0 1-.227.88z" class="cls-1" transform="translate(662.5 -1122.644)"/>
</svg>
