<svg xmlns="http://www.w3.org/2000/svg" id="Компонент_62_1" width="78.608" height="78.608" viewBox="0 0 78.608 78.608">
    <defs>
        <style>
            .cls-1{fill:#840000}
        </style>
    </defs>
    <path id="Контур_2074" d="M-728.641 1202.576a39.305 39.305 0 0 0-39.3 39.3 39.3 39.3 0 0 0 39.3 39.3 39.3 39.3 0 0 0 39.3-39.3 39.3 39.3 0 0 0-39.3-39.3zm0 68.813c-12.412 0-22.473-8.6-22.473-19.2 0-7.959 6.343-17.093 14.182-21.943a1.06 1.06 0 0 1-.046-.3.936.936 0 0 1 .71-.942 1.063 1.063 0 0 1-.171-.585.929.929 0 0 1 .674-.942l-3.07-7.981a1.888 1.888 0 0 1-.037-.2 2.706 2.706 0 0 1 2.879-3.043l.777.05a1.625 1.625 0 0 0 1.657-1.133l.318-1.01a2.447 2.447 0 0 1 2.482-1.78l9.674.245a1.828 1.828 0 0 1 1.594 2.037l-.2.466a1.106 1.106 0 0 0 .459 1.4l2.351 1.368a1.855 1.855 0 0 1 .66 2.522l-.818 1.008a1.183 1.183 0 0 0-.016 1.471 1.211 1.211 0 0 1-.214 1.7l-.616.478-3.217 2.5a.985.985 0 0 1 .442.849 1.047 1.047 0 0 1-.2.63.958.958 0 0 1 .563.9 1.016 1.016 0 0 1-.159.548c7.7 4.911 14.3 13.855 14.3 21.694-.011 10.596-10.073 19.193-22.485 19.193z" class="cls-1" transform="translate(767.945 -1202.576)"/>
    <path id="Контур_2075" d="M-725.256 1251.27c-2.791-1.155-3.979-1.989-3.979-3.657 0-1.283.931-2.759 3.4-2.759a7.747 7.747 0 0 1 4.042 1.092l.853-2.118a8.349 8.349 0 0 0-4.12-1.123v-3.022h-2.24v3.151a5.381 5.381 0 0 0-4.769 5.166c0 2.791 2.059 4.267 5.332 5.55 2.375.963 3.645 2.053 3.645 3.818 0 1.828-1.531 3.144-3.808 3.144a8.533 8.533 0 0 1-4.615-1.38l-.812 2.15a9.461 9.461 0 0 0 4.867 1.411v3.274h2.244v-3.37a5.746 5.746 0 0 0 5-5.454c.001-2.857-1.735-4.525-5.04-5.873z" class="cls-1" transform="translate(765.586 -1205.033)"/>
</svg>
