<svg xmlns="http://www.w3.org/2000/svg" id="Компонент_66_1" width="78.608" height="78.608" viewBox="0 0 78.608 78.608">
    <defs>
        <style>
            .cls-1{fill:#840000}
        </style>
    </defs>
    <path id="Контур_2066" d="M-746.429 1117.1c1.778-.041 3.558-.028 5.337-.028h2.361c-.178-2.083-.332-3.846-.489-5.609h-10.454c.653 1.6 1.277 3.18 1.792 4.724.258.78.698.933 1.453.913z" class="cls-1" transform="translate(774.512 -1080.643)"/>
    <path id="Контур_2067" d="M-745.075 1137.689a1.7 1.7 0 0 0 1.66 1.741 1.8 1.8 0 0 0 1.826-1.795 1.712 1.712 0 0 0-1.676-1.657 1.689 1.689 0 0 0-1.81 1.711z" class="cls-1" transform="translate(774.208 -1082.267)"/>
    <path id="Контур_2068" d="M-719.748 1124.65c.274 0 .716-.193.786-.4.308-.9.59-1.8.87-2.725-.329.025-.659.043-1 .043a12.555 12.555 0 0 1-6.362-1.724c-.132 1.568-.261 3.107-.4 4.824 2.179.001 4.143.017 6.106-.018z" class="cls-1" transform="translate(772.934 -1081.198)"/>
    <path id="Контур_2069" d="M-746.536 1119.531c.618 1.763 1.163 3.13 1.77 4.585a.99.99 0 0 0 .726.489c1.957.038 3.915-.007 6.058-.007-.157-1.835-.3-3.463-.431-5.067z" class="cls-1" transform="translate(774.304 -1081.178)"/>
    <path id="Контур_2070" d="M-736.027 1116.273a1.3 1.3 0 0 0 .964.8c2.053.077 4.11.022 6.166.065a13.025 13.025 0 0 1-3.135-5.674h-4.384c.116 1.603.183 3.241.389 4.809z" class="cls-1" transform="translate(773.634 -1080.643)"/>
    <path id="Контур_2071" d="M-720.055 1139.432a1.707 1.707 0 0 0 1.675-1.728 1.714 1.714 0 0 0-1.8-1.732 1.693 1.693 0 0 0-1.674 1.717 1.744 1.744 0 0 0 1.799 1.743z" class="cls-1" transform="translate(772.669 -1082.266)"/>
    <path id="Контур_2072" d="M-736.97 1078.457a39.3 39.3 0 0 0-39.3 39.3 39.3 39.3 0 0 0 39.3 39.3 39.3 39.3 0 0 0 39.3-39.3 39.3 39.3 0 0 0-39.3-39.3zm19.839 39.205l-2.038 6.536c-.417 1.345-1.457 1.569-2.673 1.566-7.185-.017-14.371.021-21.556.021h-1.539c.509 2.564.509 2.614 2.92 2.614 6.012 0 12.023-.021 18.034-.009a5.4 5.4 0 0 1 5.094 2.925 5.208 5.208 0 0 1-.189 5.488 5.437 5.437 0 0 1-6.115 2.363 5.484 5.484 0 0 1-4.007-5.208c-.007-.553.063-1.121.1-1.761h-10.791a19.469 19.469 0 0 1-.292 3.2 5.284 5.284 0 0 1-4.919 3.951 5.482 5.482 0 0 1-5.429-3.48 5.245 5.245 0 0 1 1.573-6.11c.925-.7.9-1.271.534-2.213q-4.625-11.932-9.153-23.9a1.545 1.545 0 0 0-1.809-1.234 33.435 33.435 0 0 1-3.379.014 1.791 1.791 0 0 1-1.944-1.8 1.8 1.8 0 0 1 1.974-1.9c1.878-.039 3.757.017 5.634-.024a2.1 2.1 0 0 1 2.231 1.546c.478 1.322 1.057 2.612 1.47 3.953.3.985.842 1.244 1.839 1.241q8.272-.025 16.544-.024a12.615 12.615 0 0 1 12.588-11.821 12.616 12.616 0 0 1 12.616 12.616 12.616 12.616 0 0 1-7.318 11.45z" class="cls-1" transform="translate(776.274 -1078.457)"/>
    <path id="Контур_2073" d="M-735.381 1124.66h6.981c.136-1.763.269-3.366.407-5.129h-7.8c.142 1.763.275 3.369.412 5.129z" class="cls-1" transform="translate(773.592 -1081.178)"/>
    <g id="Сгруппировать_394" transform="translate(46.636 20.542)">
        <path id="Прямоугольник_586" d="M0 0H2.723V14.424H0z" class="cls-1" transform="translate(5.851)"/>
        <path id="Прямоугольник_587" d="M0 0H2.723V14.424H0z" class="cls-1" transform="rotate(90 4.287 10.137)"/>
    </g>
</svg>
