<svg xmlns="http://www.w3.org/2000/svg" id="Компонент_63_1" width="78.607" height="78.608" viewBox="0 0 78.607 78.608">
    <defs>
        <style>
            .cls-1{fill:#840000}
        </style>
    </defs>
    <path id="Контур_2076" d="M-759.163 1380.649a3.364 3.364 0 0 0-.206-.467 1.4 1.4 0 0 0-.661-.6c-2.046-.919-1.734 2.086.036 3.047a4.812 4.812 0 0 0 .754-1.02 1.169 1.169 0 0 0 .077-.96z" class="cls-1" transform="translate(772.896 -1345.504)"/>
    <path id="Контур_2077" d="M-734.4 1343.1a39.3 39.3 0 0 0-39.3 39.3 39.3 39.3 0 0 0 39.3 39.3 39.3 39.3 0 0 0 39.3-39.3 39.3 39.3 0 0 0-39.3-39.3zm29.11 34.828v8.394c0 .008.028.017.028.025-.015.475-.22.853-.49.853-.049 0-.089.016-.134-.007a1.091 1.091 0 0 1-.358.09h-2.633l.011-.025c-1.442 4.077-4.6 6.866-8.6 8.843v1.76h-.038a2.241 2.241 0 0 1-1.487 1.8v.6H-719a3.408 3.408 0 0 1-3.582 3.185 3.408 3.408 0 0 1-3.583-3.185l-.012-2.027c-.2.009-7.7 0-12.107-.03a5.081 5.081 0 0 1-.073.655 2.359 2.359 0 0 1-2.275 1.516 2.12 2.12 0 0 1-.71-.1v-.01h-.06a3.408 3.408 0 0 1-3.582 3.185 3.408 3.408 0 0 1-3.582-3.185l.035-4.238c-8.232-2.85-9.69-11.727-9.69-11.727-.061-.61-.093-1.174-.105-1.705a7.21 7.21 0 0 1-2.511-1.305c-1.452 1.208-2.271 1.224-2.55 1.178a.2.2 0 0 1-.17-.176v-.007a.508.508 0 0 1 .384-.528 4.82 4.82 0 0 0 1.817-.912l-.217-.193-.1-.087c-1.637-1.444-2.527-4.7-.067-4.619a3.786 3.786 0 0 1 2.216 1.1 2.237 2.237 0 0 1 .558 2.549 3.362 3.362 0 0 1-1.363 1.264 4.727 4.727 0 0 0 2 .745 14.867 14.867 0 0 1 .567-3.822c2.107-7.168 9.324-12.484 17.961-12.66a5.567 5.567 0 0 1-.963-3.137 5.588 5.588 0 0 1 5.588-5.588 5.587 5.587 0 0 1 5.588 5.587 5.554 5.554 0 0 1-.906 3.048l3.327-.03c0-1.577 1.71-2.855 3.833-2.878h.097v3.147c.16.027.318.055.486.086 5.593 1.023 11.912 6.022 13.893 11.633 0 .01 0 .036.006.036h2.614a1.115 1.115 0 0 1 .324.042.322.322 0 0 1 .182-.064c.139 0 .237.1.329.263a1.333 1.333 0 0 1 .119.637v.025z" class="cls-1" transform="translate(773.708 -1343.099)"/>
    <path id="Контур_2078" d="M-729.232 1376.987a6.436 6.436 0 0 0 .136 1.322 7.693 7.693 0 0 0 3.256.754c3.513.082 4.385-1.983 4.472-1.593v-7.764c-4.367.136-7.864 3.344-7.864 7.281z" class="cls-1" transform="translate(770.763 -1344.861)"/>
    <path id="Контур_2079" d="M-713.254 1377.37a2.253 2.253 0 0 0-2.368 2.117 2.253 2.253 0 0 0 2.368 2.117 2.254 2.254 0 0 0 2.37-2.117 2.253 2.253 0 0 0-2.37-2.117zm.6 2a.523.523 0 0 1-.549-.491.522.522 0 0 1 .549-.49.521.521 0 0 1 .549.49.522.522 0 0 1-.553.494z" class="cls-1" transform="translate(769.861 -1345.368)"/>
    <path id="Контур_2080" d="M-726.289 1368.617h-3.974a7.013 7.013 0 0 1-2.626.656 7.022 7.022 0 0 1-2.627-.656h-2.884a.665.665 0 0 0-.509.236.864.864 0 0 0-.168.312.717.717 0 0 0 .677.415h12.115a.713.713 0 0 0 .676-.408.73.73 0 0 0-.68-.555z" class="cls-1" transform="translate(771.415 -1344.788)"/>
    <path id="Контур_2081" d="M-732.771 1358.473a4.523 4.523 0 0 0-4.523 4.522 4.518 4.518 0 0 0 2.263 3.916 4.5 4.5 0 0 0 2.261.607 4.505 4.505 0 0 0 2.333-.648 4.52 4.52 0 0 0 2.189-3.875 4.522 4.522 0 0 0-4.523-4.522zm-1.53 2.415a2.128 2.128 0 0 1 1.289-.44v-.836h.8v.828a5.379 5.379 0 0 1 1.46.375l-.493 1.092a3.658 3.658 0 0 0-1.463-.36.939.939 0 0 0-.44.075.246.246 0 0 0-.13.22.268.268 0 0 0 .088.208 1.247 1.247 0 0 0 .311.184c.148.068.353.147.616.236a2.962 2.962 0 0 1 1.148.645 1.287 1.287 0 0 1 .348.933 1.358 1.358 0 0 1-.332 1.045 2.452 2.452 0 0 1-1.114.5v1.071h-.8v-1.049a3.373 3.373 0 0 1-1.6-.375v-1.272a2.576 2.576 0 0 0 .887.377 3.066 3.066 0 0 0 .876.152.987.987 0 0 0 .458-.079.265.265 0 0 0 .142-.262.271.271 0 0 0-.114-.214 1.754 1.754 0 0 0-.367-.2c-.169-.074-.4-.163-.688-.268a3.1 3.1 0 0 1-.786-.4 1.416 1.416 0 0 1-.435-.5 1.573 1.573 0 0 1-.121-.691 1.292 1.292 0 0 1 .461-.995z" class="cls-1" transform="translate(771.297 -1344.117)"/>
</svg>
